<svg width="2689" height="1146" viewBox="0 0 2689 1146" fill="none" xmlns="http://www.w3.org/2000/svg">
<g clip-path="url(#clip0_2723_9924)">
<path d="M620.06 2.09042C645.2 4.31042 670.12 8.30042 694.49 14.0104C757.85 28.8504 820.91 53.8804 876.51 87.7904C962.09 139.99 1030.85 213.97 1079.56 302.78C1102.02 343.73 1120.04 388.78 1132.74 436.56C1133.19 438.24 1133.72 439.59 1133.34 441.45C1130.76 441.88 1131.54 441.07 1131.06 439.29C1129.21 432.39 1127.3 427.86 1125.02 421.28C1106.75 368.59 1084.46 323.31 1052.18 278.07C1013.96 224.51 961.79 176.94 906.66 142.43C842.58 102.32 768.76 76.7204 693.83 67.6904C680 66.0204 666.16 64.3504 652.26 63.4104C629.92 61.9004 607.46 62.2704 585.19 64.5104C521.99 70.8804 459.26 87.5304 402.12 115.52C312.64 159.34 230.66 231.88 179.7 321.29C163.5 350.16 146.07 384 135.43 416.2C128.08 438.44 123.65 461.76 119.3 484.89C108.49 542.32 106.96 599.49 114.41 658.89C116.01 671.64 119.57 683.55 122.26 696.04C130.91 736.2 143.96 771.89 160.87 807.43C215.28 921.8 313.37 1013.49 428.58 1060.53C444.72 1067.12 464.54 1075.92 481.09 1080.39C579.76 1107.05 689.25 1108.77 787.17 1077.3C828.42 1064.04 868.03 1045.66 904.85 1022.83C967.12 984.24 1021.54 932.76 1062.01 871.59C1065.34 869.35 1065.26 864.62 1069.35 862.45C1069.64 864.18 1068.92 865.34 1068.2 866.79C1063.57 876.06 1052.67 890.75 1046.37 899.68C1009.83 951.46 965.3 996.81 915.12 1033.46C895.09 1048.09 872.52 1062.87 850.66 1074.44C814.82 1093.41 777.54 1109.28 738.13 1120.52C640.71 1148.31 542.06 1154.4 442.91 1130.08C347.75 1106.74 258.65 1059.4 186.09 993.53C177.73 985.94 169.6 978.11 161.72 970.03C142.77 950.61 121.93 925.61 105.69 903.13C104.79 901.88 105.1 899.61 104.15 898.64C103.36 897.83 101.3 898.04 100.6 897.2C100.02 896.5 100.05 894.39 99.2198 893.1C67.9298 844.34 41.8698 794.04 25.3898 738.24C-3.44016 640.59 -9.01015 540.22 15.4298 440.78C37.8598 349.53 83.2299 263.4 146.05 193.51C171.4 165.31 199.6 139.69 230.05 117.09C282.46 74.7504 342.28 50.0504 403.11 28.4904C471.95 4.10042 546.93 -4.37958 620.06 2.09042Z" fill="#F8981D"/>
<path d="M1160.07 423.076C1153.53 423.076 1148.77 421.066 1145.93 417.086C1141.61 411.046 1143.91 403.586 1145.43 398.636C1152.51 375.616 1152.22 350.886 1151.94 326.966C1151.31 273.346 1150.63 218.836 1149.93 164.946C1149.89 161.806 1149.83 157.066 1152.47 153.096C1155.78 148.136 1161.31 148.136 1163.4 148.136C1163.92 148.136 1164.44 148.146 1164.95 148.156C1164.95 148.156 1165.76 148.176 1166 148.176C1168.23 148.176 1170.5 147.966 1172.9 147.736C1174.08 147.626 1175.27 147.516 1176.45 147.426C1181.78 147.036 1186.99 146.836 1191.93 146.836C1195.82 146.836 1199.66 146.956 1203.36 147.196C1207.36 147.456 1211.32 147.866 1215.13 148.416C1232.51 150.916 1263.99 158.656 1279.44 182.406C1281.15 185.036 1282.72 187.926 1284.11 190.996C1284.33 191.486 1284.6 192.036 1284.89 192.626C1286.3 195.506 1288.06 199.086 1288.06 202.476C1288.06 203.086 1288.44 204.236 1288.77 205.246C1289.1 206.236 1289.47 207.366 1289.71 208.556C1290.38 211.956 1290.83 215.276 1291.04 218.446C1291.51 225.686 1290.8 232.456 1288.93 238.586C1286.25 247.356 1281.19 254.906 1276.67 261.286C1268.76 272.446 1258.52 281.856 1247.07 288.506C1241.55 291.706 1235.82 293.886 1230.28 295.986L1228.72 296.576C1223.64 298.516 1220.64 300.936 1220.7 303.066C1220.76 305.236 1223.95 307.596 1226.73 309.406L1339.38 382.876C1342.08 384.636 1347.12 387.916 1348.03 393.686C1349.03 400.006 1344.4 405.006 1342.17 407.406C1340.12 409.616 1336.3 413.736 1330.81 413.796H1330.69C1326.73 413.796 1323.66 411.756 1320.92 409.556C1317.05 406.446 1313.41 403.086 1309.88 399.826C1308.15 398.236 1306.43 396.646 1304.68 395.076C1285.45 377.916 1262.82 364.156 1240.93 350.836C1223.25 340.086 1204.97 328.966 1188.29 315.996C1180.31 309.796 1180.03 304.206 1181.2 300.606C1183 295.066 1188.71 293.066 1191.45 292.096C1206.5 286.816 1221.03 281.386 1233.41 272.966C1243.12 266.376 1250.03 258.846 1253.95 250.606C1255.96 246.396 1257.23 241.856 1257.73 237.126C1257.96 234.956 1257.83 232.676 1257.7 230.256C1257.56 227.636 1257.41 224.926 1257.7 222.096C1258.56 213.626 1258.63 201.346 1254.07 190.916C1249.47 180.396 1235.35 174.386 1224 169.556L1222.4 168.876C1217.29 166.696 1212.69 165.126 1206.87 164.566C1203.95 164.286 1200.99 164.146 1198.06 164.146C1194.67 164.146 1191.25 164.336 1187.89 164.706C1184.9 165.036 1180.74 165.736 1179.11 168.026C1177.91 169.706 1177.81 172.536 1177.8 175.786L1177.22 406.546C1177.22 409.706 1177.19 417.126 1171.42 420.786C1168.94 422.356 1166.23 422.636 1164.43 422.816C1162.83 422.976 1161.4 423.056 1160.08 423.056L1160.07 423.076Z" fill="#6CBD45"/>
<path d="M1388.44 432.941C1383.98 432.941 1380.27 430.891 1377.01 429.071C1374.69 427.781 1372.49 426.571 1370.54 426.381C1370.17 426.341 1369.79 426.331 1369.4 426.311C1367.15 426.211 1363.38 426.041 1360.89 422.861C1359.76 421.441 1356.56 416.161 1363.51 408.851C1384.76 386.571 1400.92 360.641 1418.67 328.571C1424.32 318.341 1430.3 308.141 1436.09 298.271C1438.98 293.351 1441.86 288.431 1444.72 283.481C1454.47 266.631 1463.28 251.461 1472.33 236.401C1480.01 223.601 1488.17 209.961 1495.97 196.271C1498.76 191.381 1501.21 186.961 1503.47 182.751C1506.6 176.921 1509.01 171.531 1511.55 165.831C1513.4 161.691 1515.31 157.401 1517.5 153.001C1517.53 152.941 1520.41 147.391 1521.86 145.751C1524.43 142.881 1527.49 142.871 1529.13 142.861C1529.26 142.861 1529.42 142.861 1529.56 142.861C1529.91 142.111 1530.43 141.011 1531.38 139.881C1532.9 138.061 1535.16 136.961 1537.43 136.961C1538.21 136.961 1538.97 137.091 1539.7 137.331C1541.16 137.851 1542.36 138.771 1543.25 140.011C1544 141.061 1544.5 142.291 1544.7 143.581C1544.95 145.121 1544.77 146.521 1544.63 147.541L1544.58 147.931C1543.69 155.041 1546.38 162.051 1549.45 169.211C1551.81 174.721 1553.96 180.371 1556.03 185.841C1557.01 188.421 1557.99 191.001 1558.99 193.571C1565.63 210.581 1572.53 227.601 1579.49 244.151C1595.78 282.901 1609.77 314.261 1623.53 342.841C1624.13 344.101 1624.75 345.351 1625.36 346.601C1626.2 348.311 1627.04 350.021 1627.85 351.741L1648.65 394.181C1652.48 401.971 1652.4 408.031 1648.42 412.171C1646.2 414.461 1643.3 415.341 1641.57 415.871C1636.71 417.371 1631.63 418.771 1626.49 420.021C1625.16 420.351 1623.38 420.721 1621.52 420.721C1618.78 420.721 1616.46 419.921 1614.63 418.331C1611.19 415.341 1611.02 410.891 1610.92 408.231C1610.41 393.981 1606.78 378.691 1599.83 361.461C1597.14 354.781 1593.89 347.611 1589.59 338.901C1587.74 335.141 1585.82 331.341 1584.01 327.801C1583.82 327.431 1583.63 327.051 1583.45 326.681C1582.05 323.871 1581.89 323.761 1581.02 323.721H1580.78C1580.39 323.691 1580 323.681 1579.61 323.681C1577.59 323.681 1575.48 323.941 1573.25 324.221C1571.98 324.381 1570.67 324.541 1569.33 324.661C1568.06 324.771 1566.78 324.821 1565.42 324.821C1562.19 324.821 1559.05 324.521 1556.02 324.221C1554.4 324.061 1552.73 323.901 1551.11 323.791C1549.73 323.701 1548.45 323.511 1547.21 323.331C1546.01 323.151 1544.87 322.981 1543.83 322.941C1543.51 322.931 1543.2 322.921 1542.88 322.921C1541.04 322.921 1539.1 323.101 1537.05 323.291C1535.75 323.411 1534.46 323.531 1533.19 323.611L1511.51 324.961L1467.57 327.671C1456.74 328.341 1447.25 329.351 1440.71 334.901C1436.78 338.251 1434.04 343.301 1431.58 348.171C1421.02 368.961 1412.51 390.931 1406.28 413.481L1406.18 413.841C1405.25 417.241 1404.19 421.101 1402.05 424.581C1399.16 429.281 1394.81 432.291 1390.11 432.851C1389.56 432.911 1389 432.951 1388.44 432.951V432.941ZM1489.41 305.691C1492.04 305.731 1494.66 305.751 1497.29 305.751C1502.2 305.751 1507.13 305.681 1511.97 305.531C1513.24 305.491 1514.52 305.481 1515.8 305.461C1518.09 305.441 1520.26 305.411 1522.34 305.241L1540.84 303.711C1544.46 303.411 1548.08 303.101 1551.69 302.791C1554.37 302.561 1557.06 302.331 1559.74 302.101C1561.9 301.921 1563.94 301.741 1565.56 301.091C1566.65 300.661 1567.57 299.791 1568.11 298.701C1568.52 297.871 1568.68 296.991 1568.57 296.151C1568.27 293.801 1567.05 291.371 1565.76 288.801C1565.03 287.341 1564.28 285.841 1563.63 284.241C1559.75 274.661 1555.92 264.851 1552.23 255.361C1545.07 236.971 1537.67 217.961 1529.43 199.701C1528.9 198.531 1528.52 197.271 1528.15 196.041C1527.68 194.501 1527.05 192.411 1526.33 191.671C1525.98 191.531 1525.04 191.311 1523.7 191.311C1522.36 191.311 1521.52 191.511 1521.11 191.651C1519.53 193.561 1515.49 201.401 1513.28 205.681C1511.7 208.751 1510.33 211.401 1509.42 212.931C1506.35 218.081 1503.24 223.261 1500.11 228.471C1496.08 235.181 1492.02 241.951 1487.98 248.751L1485.06 253.701C1484.29 255.011 1483.52 256.321 1482.75 257.641L1481.77 259.311C1481.61 259.581 1481.46 259.841 1481.31 260.101L1481.26 260.191C1481.11 260.461 1480.99 260.661 1480.88 260.871L1480.35 261.841C1480.03 262.441 1479.7 263.041 1479.36 263.631C1479.36 263.631 1478.74 264.671 1478.7 264.741C1477.59 266.621 1476.48 268.521 1475.38 270.411L1475.31 270.521L1475.24 270.621L1475.19 270.731L1474.82 271.371C1474.62 271.711 1474.42 272.051 1474.23 272.391C1472.87 274.741 1471.56 277.021 1470.27 279.311C1468.89 281.751 1467.46 284.331 1465.89 287.211C1464.85 289.111 1463.69 290.801 1462.57 292.441C1462.07 293.181 1461.56 293.921 1461.07 294.671C1460.23 295.971 1459.74 296.941 1459.51 297.801C1459.18 299.011 1459.24 300.351 1459.68 301.591C1459.78 301.671 1460.06 301.851 1460.79 302.141C1461.93 302.601 1463.09 303.011 1464.24 303.361L1464.64 303.461C1466.61 303.951 1468.22 304.301 1469.72 304.561C1471.82 304.921 1473.97 305.201 1476.1 305.391C1478.23 305.581 1480.39 305.701 1482.53 305.721H1483.19C1484.02 305.721 1484.85 305.711 1485.69 305.691C1486.58 305.671 1487.48 305.661 1488.37 305.661C1488.71 305.661 1489.04 305.661 1489.38 305.661L1489.41 305.691Z" fill="#6CBD45"/>
<path d="M1889.78 423.455C1885.28 423.455 1879.27 418.145 1879.21 418.095C1877.42 416.395 1875.07 413.385 1872.57 410.205C1871.08 408.305 1869.67 406.505 1868.59 405.265C1836.5 368.325 1805.13 330.425 1775.76 294.775C1752.54 266.595 1727.7 236.755 1701.75 208.885C1701.14 208.235 1700.4 207.435 1699.83 207.075C1699.53 207.795 1699.12 209.235 1698.83 212.065L1698.16 218.555C1695.99 239.525 1693.75 261.205 1693.36 282.635C1692.94 305.385 1693.61 327.405 1695.35 348.095C1696.17 357.885 1697.45 367.825 1698.68 377.435L1699.1 380.665C1699.9 386.955 1699.69 393.215 1699.48 399.275C1699.33 403.515 1699.2 407.515 1699.38 411.515L1699.62 416.745H1666.93L1665.7 415.965C1662.56 413.965 1661.9 410.115 1662.89 399.465C1663.41 393.875 1664.34 387.675 1664.78 385.535C1665.23 383.345 1665.63 381.525 1665.99 379.905C1667.22 374.295 1667.83 371.485 1668.39 363.885C1670.85 330.155 1671.58 295.635 1672.28 262.255C1672.9 232.655 1673.54 202.045 1675.39 171.935C1675.48 170.395 1675.42 168.705 1675.35 166.915C1675.26 164.575 1675.16 162.155 1675.42 159.715C1676.29 151.525 1681.42 146.445 1688.8 146.445C1690.05 146.445 1691.37 146.595 1692.73 146.885C1695.42 147.455 1697.12 149.115 1707.65 164.065C1708.93 165.885 1710.04 167.465 1710.51 168.075C1734.02 198.625 1760.39 229.165 1785.9 258.705C1796.5 270.985 1807.47 283.685 1818.03 296.145C1823.13 302.165 1828.15 308.475 1833.46 315.155C1846.48 331.525 1859.94 348.455 1874.44 360.565C1875.76 361.665 1876.74 362.835 1877.54 363.775C1877.9 364.195 1878.36 364.745 1878.67 365.045C1879.47 361.535 1880.36 354.145 1880.43 351.185C1880.74 338.215 1880.33 324.955 1879.93 312.135C1879.6 301.555 1879.26 290.625 1879.32 279.865L1879.98 164.185C1880 161.275 1880.04 154.465 1885.3 150.935C1887.91 149.185 1890.87 148.965 1892.64 148.835C1896.25 148.565 1899.92 148.425 1903.54 148.415H1903.67C1904.86 148.415 1907.07 148.415 1909.21 149.555C1912.18 151.135 1916.48 155.395 1911.88 166.125C1907.66 175.955 1906.93 187.185 1906.23 198.035L1903.12 245.805C1901.53 270.165 1899.89 295.365 1898.97 320.205C1898.39 336.005 1898.1 351.435 1900.99 366.545C1901.48 369.085 1902.07 371.705 1902.65 374.235C1904.12 380.705 1905.65 387.405 1905.78 394.395C1905.88 399.735 1905.09 407.595 1900.76 414.705C1899.19 417.285 1895.51 423.325 1889.95 423.465H1889.79L1889.78 423.455Z" fill="#6CBD45"/>
<path d="M2078.54 424.447C2061.43 424.447 2043.78 421.427 2026.07 415.467C2007.88 409.347 1990.56 400.547 1974.58 389.327C1973.93 388.867 1973.28 388.407 1972.64 387.947C1954.82 375.097 1941.86 360.277 1934.13 343.897C1930.74 336.727 1928.37 329.217 1927.08 321.587C1924 303.397 1924.19 284.717 1927.65 266.067C1931.16 247.127 1937.78 229.587 1947.35 213.917C1957.38 197.487 1970.63 183.587 1985.68 173.727C2004.32 161.507 2025.85 153.107 2049.69 148.747C2061.62 146.567 2074.16 145.457 2086.96 145.457C2089.5 145.457 2092.1 145.497 2094.67 145.587C2102.91 145.867 2111.39 146.597 2119.86 147.757C2131.99 149.427 2144.39 152.017 2156.71 155.457C2158.82 156.047 2162 156.937 2164.41 159.537C2166.48 161.777 2167.23 164.487 2167.66 166.597C2169.05 173.457 2168.51 180.707 2166.23 185.977C2164.92 188.997 2162.58 191.277 2159.81 192.227C2158.77 192.587 2157.66 192.767 2156.51 192.767C2154.7 192.767 2152.84 192.337 2150.68 191.427C2145.75 189.337 2141.71 186.167 2137.8 183.107C2134.66 180.647 2131.68 178.317 2128.46 176.707C2122.96 173.957 2116.36 173.157 2109.97 172.367L2109.81 172.347C2105.18 171.627 2100.37 171.087 2095.72 170.567C2093.32 170.297 2090.92 170.037 2088.53 169.737C2082.14 168.957 2075.32 168.187 2068.48 168.187H2068.17C2059.39 168.217 2050.72 169.877 2043.4 171.497C2037.44 172.817 2030.47 174.497 2023.98 177.007C2012.8 181.327 2002.48 187.967 1993.01 194.497C1978.71 204.347 1968.09 219.017 1960.52 239.347C1945.2 280.497 1949.77 321.257 1972.73 348.367C1974.38 350.317 1980.02 356.117 1981.27 357.097C1986.73 361.337 1992.94 365.037 1998.94 368.617L2001.62 370.217C2010.14 375.327 2017.22 379.197 2023.91 382.407C2038.24 389.267 2051.3 393.267 2063.83 394.627C2067.4 395.017 2071.21 395.217 2075.15 395.217C2082.12 395.217 2089.52 394.647 2099.16 393.377C2100.28 393.227 2101.51 393.157 2102.91 393.157C2104.31 393.157 2105.78 393.227 2107.17 393.307C2108.53 393.377 2109.82 393.447 2111.07 393.447C2114.65 393.447 2116.68 392.877 2118.1 391.477C2121.42 388.197 2120.85 379.737 2120.47 374.137C2120.4 373.107 2120.34 372.137 2120.29 371.227C2119.95 364.427 2120.08 357.517 2120.21 350.837C2120.5 335.767 2120.77 321.537 2116.07 308.277C2112.88 299.277 2115.85 295.167 2118.9 293.307C2120.28 292.467 2121.81 292.037 2123.45 292.037C2125.85 292.037 2127.88 292.937 2129.67 293.737C2130.56 294.127 2131.77 294.677 2132.27 294.677C2132.7 294.677 2133.87 294.007 2134.64 293.567C2136.51 292.507 2138.85 291.187 2141.85 291.187C2142.06 291.187 2142.28 291.187 2142.5 291.207C2147.99 291.567 2151.65 296.407 2152.44 300.997C2153.06 304.617 2152.26 307.927 2151.56 310.847L2151.46 311.277C2148.62 323.157 2147.87 334.967 2147.51 344.957C2147.23 352.787 2147.97 360.517 2148.76 368.697C2149.13 372.507 2149.5 376.447 2149.76 380.357C2150.41 390.197 2150.71 401.587 2145.98 412.337C2143 419.097 2138.87 421.177 2135.92 421.737C2135.24 421.867 2134.52 421.927 2133.79 421.927C2132.25 421.927 2130.88 421.647 2129.67 421.407L2129.14 421.297C2126.59 420.797 2123.89 420.557 2120.9 420.557C2115.22 420.557 2109.47 421.417 2103.4 422.327C2100.6 422.747 2097.7 423.177 2094.83 423.517C2089.53 424.137 2084.08 424.457 2078.61 424.457L2078.54 424.447Z" fill="#6CBD45"/>
<path d="M2186.44 421.062C2185.25 421.062 2184.08 420.772 2183.07 420.222C2178.14 417.562 2179.4 411.332 2180.08 407.992C2180.19 407.462 2180.33 406.742 2180.35 406.502L2183.19 331.512C2183.23 330.422 2183.32 329.332 2183.4 328.272C2183.57 326.122 2183.73 324.102 2183.51 322.432C2183.42 321.782 2183.32 321.162 2183.22 320.542C2182.93 318.732 2182.63 316.862 2182.61 314.642C2182.58 311.302 2182.58 307.912 2182.6 304.272C2182.7 283.402 2183.18 261.072 2184.17 231.872C2184.91 209.952 2185.75 185.102 2181.26 161.242C2181.11 160.442 2180.95 159.642 2180.79 158.842L2180.15 155.682L2182.76 153.792C2188.64 149.532 2195.72 148.982 2201.23 148.982C2203.09 148.982 2204.94 149.052 2206.52 149.112C2209.07 149.212 2211.63 149.312 2214.18 149.412C2233.75 150.122 2253.62 150.482 2273.21 150.482C2295.71 150.482 2318.51 150.002 2340.98 149.072L2346.14 148.852L2346.19 154.022C2346.24 159.482 2345.32 164.852 2343.45 169.992C2342.73 171.972 2341.73 174.232 2339.75 176.032C2337.67 177.932 2334.81 179.012 2331.27 179.252C2330.69 179.292 2330.12 179.312 2329.54 179.312C2323.41 179.312 2317.9 177.222 2312.57 175.202C2310.68 174.482 2308.89 173.812 2307.1 173.232C2298.24 170.382 2288.65 169.992 2280.44 169.992C2277.62 169.992 2274.71 170.042 2271.91 170.092C2269.06 170.142 2266.11 170.192 2263.19 170.192C2259.1 170.192 2255.71 170.092 2252.53 169.882C2250.24 169.732 2247.95 169.512 2245.73 169.302C2241.72 168.922 2237.92 168.562 2234.17 168.562C2230.87 168.562 2228 168.852 2225.42 169.452C2223.01 170.012 2221.07 170.842 2219.65 171.922C2218.82 172.552 2217.7 173.782 2217.51 177.202C2217.31 180.812 2216.6 184.292 2215.93 187.652C2215.7 188.782 2215.47 189.912 2215.27 191.042C2213.84 198.872 2212.13 209.192 2211.63 219.612C2210.91 234.672 2212.86 247.912 2217.43 258.952C2217.96 260.232 2218.23 260.642 2218.37 260.762C2218.88 261.162 2220.7 261.412 2221.79 261.562L2222.54 261.662C2225.38 262.072 2228.23 262.482 2231.08 262.852C2237.44 263.682 2242.73 264.232 2247.73 264.582C2251.86 264.872 2255.68 265.012 2259.4 265.012C2266.96 265.012 2273.77 264.432 2280.22 263.232C2281.64 262.972 2283.06 262.672 2284.48 262.382C2289.21 261.402 2294.11 260.382 2299.15 260.382C2301.72 260.382 2304.08 260.642 2306.36 261.172C2307.12 261.352 2309.14 261.822 2310.61 263.642C2311.87 265.202 2312.06 266.892 2312.15 267.702C2312.55 271.272 2312.9 275.432 2311.93 279.632C2310.74 284.832 2307.67 289.012 2303.51 291.102C2301.44 292.142 2299.1 292.672 2296.57 292.672C2294.23 292.672 2291.76 292.222 2289.24 291.342C2287.2 290.622 2285.34 289.732 2283.54 288.872C2282.09 288.182 2280.73 287.522 2279.37 287.012C2274.46 285.152 2268.92 284.902 2264.14 284.902C2262.37 284.902 2260.59 284.942 2258.83 284.972H2258.71C2247.93 285.202 2236.99 285.312 2226.2 285.312C2223.15 285.312 2220.1 285.312 2217.04 285.282H2216.87C2215.91 285.282 2215.49 285.342 2215.32 285.382C2215.25 285.472 2215.11 285.662 2214.92 286.022C2208.4 298.392 2209 311.982 2209.62 326.372L2209.66 327.332C2210.1 337.462 2210.06 347.722 2210.01 357.632C2209.99 362.982 2209.96 368.512 2210.01 373.932C2210.07 380.322 2210.29 386.012 2212.3 391.032C2213.29 393.512 2214.64 395.212 2216.01 395.692C2217.01 396.052 2218.39 396.092 2219.6 396.092C2220.11 396.092 2220.62 396.092 2221.13 396.072C2221.69 396.062 2222.25 396.052 2222.8 396.052C2223.28 396.052 2223.76 396.052 2224.23 396.082C2227.94 396.232 2231.94 396.392 2236.01 396.502C2239.17 396.582 2242.03 396.622 2244.75 396.622C2249.89 396.622 2254.52 396.482 2258.9 396.192C2262.73 395.942 2266.66 395.552 2270.46 395.172C2276.22 394.602 2282.18 394.012 2288.15 393.852C2290.02 393.802 2291.84 393.792 2293.37 393.792H2297.27C2302.72 393.792 2308.04 393.702 2313.2 392.602C2315.59 392.092 2318.03 391.132 2320.61 390.122C2325.05 388.382 2329.64 386.582 2334.94 386.582C2336.3 386.582 2337.65 386.702 2338.97 386.952L2343.02 387.702L2343.05 391.822C2343.08 395.392 2343.05 398.992 2343.04 402.482C2343.03 404.742 2343.01 407.002 2343.01 409.262C2343.01 410.772 2342.65 412.222 2341.96 413.462C2340.57 415.962 2338.47 416.582 2337.45 416.882C2335.8 417.362 2334.19 417.832 2332.52 418.262C2328.36 419.352 2324.92 419.952 2321.7 420.142C2320.84 420.192 2319.95 420.222 2319.05 420.222C2314.42 420.222 2309.93 419.532 2305.59 418.862C2303.99 418.612 2302.39 418.372 2300.79 418.162C2294.36 417.322 2287.65 417.072 2281.16 416.842C2278.74 416.752 2276.33 416.662 2273.92 416.552C2271.14 416.422 2268.81 416.282 2266.6 416.112C2262.53 415.802 2258.22 415.362 2252.61 414.682C2251.46 414.542 2250.31 414.402 2249.16 414.252C2248.75 414.202 2248.32 414.132 2247.89 414.052C2247.46 413.982 2246.93 413.882 2246.7 413.882C2244.99 413.962 2243.31 413.972 2241.67 413.972H2240.19C2231.18 414.032 2222.15 414.602 2213.34 415.662L2213.09 415.692C2211.93 415.832 2210.78 415.982 2209.63 416.142C2208.34 416.322 2207.06 416.512 2205.78 416.712C2205.05 416.832 2204.33 416.962 2203.61 417.092C2201.84 417.412 2200 417.742 2198.02 417.902L2197.48 417.942C2195.41 418.102 2193.45 418.242 2192.17 418.972C2192 419.062 2191.84 419.172 2191.68 419.272C2191.14 419.612 2190.46 420.042 2189.61 420.392C2188.57 420.822 2187.5 421.042 2186.44 421.042V421.062Z" fill="#6CBD45"/>
<path d="M1182.94 849.924C1181.01 849.924 1179.01 849.664 1177.02 849.134C1174.93 848.594 1172.98 847.874 1171.09 847.174C1169.07 846.424 1167.15 845.724 1165.27 845.314L1164.75 845.204C1163.45 844.934 1161.83 844.594 1160.2 843.614C1153.59 839.644 1156.84 832.234 1157.9 829.804C1158 829.574 1158.1 829.354 1158.19 829.134C1159.38 826.304 1160.11 823.454 1160.36 820.664C1166.15 755.734 1164.62 689.014 1162.36 632.314C1162.25 629.604 1162.05 626.414 1161.84 623.024C1161.26 613.924 1160.61 603.614 1161.38 596.574C1162.05 590.464 1165.81 584.214 1171.21 580.274C1174.06 578.194 1177.64 577.004 1181.03 577.004C1185.9 577.004 1190.01 579.374 1192.3 583.494C1194.88 588.154 1194.54 593.424 1194.29 597.284C1192.01 632.414 1190.77 670.524 1190.39 717.204C1190.32 723.954 1190.15 730.854 1189.98 737.524C1189.34 763.584 1188.68 790.524 1193.52 815.914C1193.82 817.464 1194.67 820.204 1195.5 822.854C1197.34 828.744 1198.46 832.524 1198.41 835.254C1198.32 840.254 1196.28 844.434 1192.67 847.034C1190.04 848.924 1186.67 849.924 1182.93 849.924H1182.94Z" fill="#231F20"/>
<path d="M1399.77 853.486C1399.63 853.486 1399.49 853.486 1399.35 853.486C1397.59 853.406 1396.11 852.796 1394.9 852.216C1388.56 849.166 1383.86 845.016 1380.94 839.896C1379.39 837.176 1378.27 834.396 1377.2 831.706C1376.28 829.406 1375.41 827.236 1374.32 825.236C1371.66 820.346 1367.98 816.136 1364.07 811.686C1361.84 809.146 1359.54 806.516 1357.4 803.716C1332.52 771.086 1308.46 735.936 1285.18 701.946C1275.36 687.616 1265.21 672.786 1255.26 658.546C1253.53 656.066 1251.9 653.386 1250.33 650.796C1248.02 646.986 1245.63 643.046 1243.01 639.966C1242.76 639.666 1242.53 639.406 1242.32 639.186C1241.74 641.396 1241.59 644.346 1241.47 646.676C1241.43 647.416 1241.4 648.116 1241.35 648.776C1238.15 696.556 1237.68 745.036 1239.97 792.876C1240.44 802.726 1241.03 812.336 1243.05 821.536L1243.21 822.246C1244.45 827.856 1245.99 834.836 1242.1 840.866C1239.41 845.026 1234.39 847.766 1228.67 848.196C1228.07 848.246 1227.44 848.266 1226.82 848.266C1222.96 848.266 1219.28 847.396 1216.04 846.636C1214.68 846.316 1211.84 845.646 1210.01 843.136C1208.29 840.786 1208.38 838.136 1208.43 836.866C1208.55 833.586 1208.92 830.376 1209.28 827.276L1209.35 826.636C1213.01 795.016 1215.16 761.096 1216.33 716.656C1216.47 711.496 1216.61 706.336 1216.75 701.176C1217.26 682.596 1217.78 663.396 1218.06 644.566C1218.15 638.226 1217.9 631.106 1217.63 623.586C1217.16 610.466 1216.68 596.896 1218.02 585.966C1218.9 578.806 1224.42 573.406 1230.87 573.406C1233.05 573.406 1235.17 574.006 1237.17 575.196C1237.59 575.446 1238.01 575.726 1238.41 576.026C1241.47 578.286 1243.28 581.336 1244.88 584.036L1245 584.226C1250.55 593.576 1256.8 602.686 1262.84 611.506L1263.03 611.786L1263.18 612.096C1265.07 615.876 1267.96 619.726 1270.76 623.456C1272.21 625.386 1273.7 627.376 1275.07 629.366C1279.36 635.616 1283.65 641.876 1287.94 648.126C1297.78 662.456 1305.8 674.076 1313.17 684.706C1320.91 695.846 1328.65 706.976 1336.4 718.106C1342.64 727.066 1348.87 736.016 1355.1 744.976C1357.94 749.056 1360.74 753.236 1363.45 757.276C1366.43 761.716 1369.51 766.316 1372.62 770.746C1373.54 772.056 1374.44 773.376 1375.35 774.716C1379.27 780.466 1383 785.956 1387.81 790.056C1388.12 788.216 1388.12 786.176 1388.11 784.296L1388.04 589.766C1388.04 587.596 1388.04 583.966 1390.26 580.946C1392.91 577.346 1397.16 576.476 1400.12 576.136C1402.08 575.916 1404.08 575.796 1406.06 575.796C1407.63 575.796 1409.21 575.866 1410.77 576.006C1412 576.116 1414.58 576.346 1416.8 578.006C1422.27 582.096 1420.19 589.326 1419.5 591.706C1414.63 608.646 1413.16 626.906 1412.06 644.156C1410.51 668.636 1409.55 693.486 1409.21 718.036C1408.87 742.576 1409.13 767.446 1410 791.966C1410.15 796.226 1410.72 800.476 1411.33 804.976C1412.04 810.266 1412.78 815.726 1412.79 821.296C1413.05 828.396 1412.35 835.486 1410.72 842.366C1410.27 844.246 1409.68 846.436 1408.33 848.506C1406.27 851.646 1403.07 853.516 1399.77 853.516V853.486Z" fill="#231F20"/>
<path d="M1445.16 851.168C1441.65 851.168 1438.46 849.988 1435.92 847.748C1429.09 841.718 1430.34 831.818 1431.01 826.508C1438.44 767.688 1436.7 707.098 1435.03 648.518C1434.68 636.138 1434.31 623.338 1434.03 610.758C1433.93 606.298 1433.86 602.278 1434.01 598.188C1434.09 595.808 1434.24 593.658 1434.46 591.598C1434.49 591.288 1434.51 590.948 1434.54 590.598C1434.66 588.768 1434.82 586.268 1436.11 584.118C1437.71 581.438 1440.86 579.298 1446.02 577.378C1448.91 576.308 1451.93 575.758 1454.98 575.758C1456.41 575.758 1457.84 575.878 1459.23 576.128C1461.84 576.588 1464.25 577.448 1466.06 578.138C1466.84 578.438 1467.62 578.758 1468.4 579.068C1470.94 580.098 1473.35 581.068 1475.69 581.458C1476.6 581.608 1477.54 581.678 1478.58 581.678C1481.37 581.678 1484.3 581.148 1487.4 580.598C1488.9 580.328 1490.45 580.048 1492.02 579.828C1495.64 579.318 1499.46 579.078 1504.04 579.078C1507.49 579.078 1510.96 579.218 1514.32 579.348C1517.58 579.478 1520.96 579.608 1524.22 579.608C1526.67 579.608 1528.85 579.538 1530.88 579.378C1535.44 579.038 1539.93 578.258 1544.69 577.428C1545.77 577.238 1546.86 577.048 1547.95 576.868C1550.78 576.388 1554.07 575.888 1557.4 575.888C1560.18 575.888 1562.66 576.238 1564.99 576.948C1572.47 579.228 1577.59 585.618 1577.42 592.468C1577.22 600.868 1569.5 606.608 1562.33 607.758C1561.03 607.968 1559.66 608.068 1558.26 608.068C1553.96 608.068 1549.9 607.108 1545.98 606.188C1545.4 606.048 1544.82 605.918 1544.24 605.778C1531.46 602.848 1517.59 601.538 1499.25 601.538C1490.87 601.538 1482.55 601.798 1474.5 602.058C1473.32 602.098 1469.73 602.208 1468.97 603.258C1468.62 603.748 1468.38 605.068 1468.21 606.038C1463.67 631.968 1458.53 661.358 1464.83 688.398C1465.11 689.608 1465.35 690.328 1465.54 690.538C1465.67 690.648 1466.1 690.868 1467.41 691.218C1473.25 692.778 1479.61 693.538 1486.88 693.538C1497.55 693.538 1508.5 691.888 1519.08 690.298L1519.93 690.168C1522.72 689.748 1526.2 689.218 1529.79 689.218C1537.87 689.218 1543.36 692.008 1546.11 697.498C1549.48 704.238 1546.27 711.818 1541.35 715.818C1536.34 719.898 1530.05 720.818 1525.75 721.138C1524.05 721.268 1522.26 721.338 1520.44 721.338C1513.04 721.338 1505.69 720.268 1498.59 719.228C1491.58 718.198 1484.96 717.228 1478.38 717.228C1474.8 717.228 1471.58 717.518 1468.52 718.108C1467.02 718.398 1464.91 718.908 1463.94 719.948C1462.91 721.048 1462.54 723.378 1462.25 725.658C1458.46 755.168 1458.84 785.048 1463.36 814.448L1463.46 815.098C1464.66 822.858 1466.01 831.648 1462.37 839.728C1459.39 846.338 1452.15 851.138 1445.16 851.138V851.168Z" fill="#231F20"/>
<path d="M1693.51 852.328C1688.44 852.328 1683.34 851.958 1678.35 851.228C1672.47 850.368 1667.63 849.408 1663.13 848.198C1648.22 844.208 1633.9 836.168 1618.06 822.878C1609.31 815.538 1598.18 803.248 1594.86 786.338L1594.23 783.118C1590.35 763.428 1586.34 743.068 1587.69 721.178C1587.77 719.788 1587.88 718.398 1588 717.008C1589.7 697.828 1594.87 677.988 1603.8 656.338C1610.52 640.048 1618.84 623.038 1634.1 608.918C1646.82 597.148 1663.23 587.608 1682.88 580.568C1694.09 576.548 1705.68 574.598 1718.33 574.598C1725.85 574.598 1733.58 575.288 1741.94 576.698C1753.22 578.608 1767.7 581.878 1779.64 590.328C1782.11 592.068 1784.5 594.058 1786.76 596.228C1798.53 607.558 1807.21 624.318 1813.29 647.478C1817.98 665.338 1819.59 684.098 1818.08 703.228C1816.46 723.768 1811.28 744.668 1802.67 765.358C1792.93 788.758 1782.66 805.978 1770.33 819.558C1762.75 827.898 1754.16 834.618 1744.78 839.518C1728.75 847.898 1711.03 852.328 1693.51 852.328ZM1714.18 599.788C1712.27 599.788 1710.45 599.928 1708.76 600.208C1701.72 601.368 1694.31 604.568 1687.14 607.658C1685.34 608.438 1683.55 609.208 1681.8 609.938C1670.94 614.448 1662.65 618.928 1655.69 624.058C1623.6 647.698 1616.01 689.398 1614.34 712.158C1612.61 735.798 1615.68 756.548 1623.47 773.818C1632.54 793.918 1648.21 808.968 1666.48 815.118C1669.57 816.158 1672.73 816.948 1676.08 817.798C1677.38 818.128 1678.68 818.458 1679.97 818.798C1688.92 821.158 1696.65 823.198 1705.12 823.198C1706.72 823.198 1708.33 823.118 1709.91 822.978C1720.96 821.938 1728.93 819.608 1735.76 815.418C1742.46 811.318 1748.3 806.038 1754.7 800.068C1760.93 794.258 1766.38 788.938 1770.04 782.598C1772.57 778.218 1774.32 773.178 1775.9 768.388C1776.52 766.498 1777.16 764.588 1777.8 762.658C1781.44 751.768 1785.2 740.508 1787.23 729.488C1787.68 727.048 1788.04 724.668 1788.28 722.408C1789.93 707.338 1788.76 691.118 1787.73 676.808C1786.06 653.598 1776.37 633.338 1758.94 616.608C1757.88 615.588 1756.86 614.498 1755.89 613.448C1753.89 611.308 1752.01 609.278 1750 608.098C1747.5 606.628 1743.96 605.728 1740.54 604.848C1739.64 604.618 1738.75 604.388 1737.91 604.158C1730.41 602.108 1721.94 599.798 1714.19 599.798L1714.18 599.788Z" fill="#231F20"/>
<path d="M1904.02 851.012C1899.47 851.012 1896.71 849.132 1895.19 847.562C1891.62 843.852 1891.82 838.852 1891.96 835.542C1891.98 834.962 1892.01 834.392 1892.01 833.852C1892.01 833.122 1892.01 832.382 1892.01 831.642C1891.99 828.222 1891.96 824.692 1892.43 821.102C1896.76 788.192 1897.79 752.492 1898.48 718.752C1898.54 715.642 1898.61 712.472 1898.69 709.252C1899.38 678.192 1900.16 642.992 1895.73 614.342C1895.52 612.982 1895.44 611.652 1895.36 610.362C1895.07 605.652 1894.71 605.562 1893.91 605.352C1890.92 604.582 1887.47 604.192 1883.65 604.192C1880.62 604.192 1877.38 604.442 1874.01 604.922C1872.13 605.192 1870.27 605.552 1868.3 605.922C1866.78 606.212 1865.26 606.502 1863.74 606.752C1862.39 606.972 1860.95 607.272 1859.44 607.592C1855.92 608.332 1851.93 609.162 1847.97 609.172C1842.97 609.172 1838.84 607.872 1835.34 605.192C1828.8 600.182 1826.67 590.632 1830.6 583.902C1833.53 578.892 1839.47 575.902 1846.48 575.902C1846.85 575.902 1847.21 575.902 1847.57 575.932C1851.18 576.102 1854.5 576.932 1857.71 577.742C1858.84 578.032 1859.98 578.312 1861.12 578.572C1861.5 578.652 1861.89 578.732 1862.27 578.812C1865.12 579.362 1868.22 579.632 1871.74 579.632C1876.18 579.632 1880.64 579.222 1885.36 578.792C1888.72 578.482 1892.2 578.162 1895.67 578.002C1897.44 577.922 1899.29 577.882 1901.18 577.882C1909.3 577.882 1917.42 578.622 1925.27 579.342C1932.9 580.042 1940.78 580.762 1948.46 580.762C1955.81 580.762 1963.35 580.152 1970.64 579.552C1978.13 578.942 1985.88 578.312 1993.61 578.312C1996.95 578.312 2000.03 578.422 2003.04 578.662C2014 579.512 2016.26 586.632 2016.63 590.802C2017.13 596.382 2015.42 601.382 2011.95 604.522C2009.13 607.072 2005.45 608.312 2000.68 608.312C1998.51 608.312 1996.35 608.062 1994.33 607.782C1976.76 605.392 1958.87 604.182 1941.14 604.182H1940.38C1937.81 604.182 1935.19 604.282 1933.9 605.342C1932.76 606.272 1932.11 608.432 1931.57 610.622C1926.46 631.402 1926.07 653.652 1925.7 675.172C1925.62 680.012 1925.53 685.012 1925.39 689.912C1925.14 698.492 1924.8 707.202 1924.47 715.622C1923.86 730.982 1923.24 746.862 1923.2 762.452C1923.16 775.742 1923.55 787.452 1924.39 798.252C1924.78 803.302 1925.6 808.252 1926.47 813.492C1927.49 819.612 1928.54 825.942 1928.83 832.402L1928.86 833.132C1928.91 834.632 1928.9 836.342 1928.13 838.162C1927.3 840.122 1925.88 841.432 1924.61 842.452C1920.34 845.882 1915.31 848.512 1910.06 850.072C1907.94 850.702 1905.92 851.022 1904.04 851.022L1904.02 851.012Z" fill="#231F20"/>
<path d="M2034.68 852.369C2033.83 852.369 2032.99 852.229 2032.2 851.939C2030.25 851.239 2026.96 849.139 2026.76 842.829C2026.58 837.159 2027.06 831.559 2027.52 826.149C2027.64 824.759 2027.76 823.369 2027.86 821.979C2027.95 820.819 2028.08 819.609 2028.21 818.379C2028.6 814.679 2029 810.849 2028.33 807.889C2027.37 803.719 2028.21 798.649 2028.95 794.179C2029.27 792.229 2029.57 790.389 2029.67 788.949C2030.07 783.149 2030.42 777.029 2030.69 770.779C2031.18 759.559 2031.47 747.589 2031.58 734.189C2031.98 683.099 2031.82 640.139 2029.74 596.519C2029.53 592.089 2029.21 585.399 2033.51 580.349C2036.83 576.449 2041.95 574.559 2049.17 574.559C2049.46 574.559 2049.75 574.559 2050.04 574.559C2056.93 574.689 2063.65 575.829 2070.16 576.919C2075.97 577.899 2081.47 578.819 2087.03 579.089C2088.18 579.139 2089.39 579.169 2090.63 579.169C2096.01 579.169 2101.35 578.669 2107.01 578.139C2112.64 577.609 2118.46 577.069 2124.3 577.069C2126.19 577.069 2127.95 577.119 2129.69 577.239C2131.38 577.349 2133.06 577.509 2134.69 577.669C2137.39 577.939 2139.95 578.189 2142.43 578.189C2144.64 578.189 2146.54 577.979 2148.22 577.549C2148.76 577.409 2149.3 577.249 2149.84 577.089C2151.71 576.539 2153.83 575.909 2156.18 575.909C2157.48 575.909 2158.72 576.109 2159.89 576.489C2164.35 577.979 2167.64 582.409 2168.46 588.059C2169.49 595.129 2166.76 602.019 2161.51 605.609C2158.69 607.549 2155.25 608.529 2151.29 608.529C2147.33 608.529 2143.85 607.689 2140.11 606.759C2119.37 601.579 2098.01 598.949 2076.63 598.949C2075.62 598.949 2074.62 598.949 2073.62 598.969C2070.06 599.009 2066.53 599.289 2064.88 601.009C2063.52 602.429 2063.07 605.169 2062.7 608.099C2061.2 619.789 2060.1 631.689 2059.41 643.459C2058.57 657.929 2058.37 673.229 2062.54 687.099C2063.01 688.649 2063.29 689.139 2063.45 689.289C2063.78 689.579 2065.19 689.889 2065.65 689.989C2072.18 691.399 2079.39 692.109 2087.08 692.109C2097.93 692.109 2110.17 690.679 2123.45 687.859C2124.96 687.539 2126.84 687.139 2128.84 687.139C2130.84 687.139 2132.5 687.519 2134.05 688.259C2137.4 689.869 2139.85 693.299 2140.61 697.439C2141.17 700.539 2140.77 703.559 2140.44 705.979C2139.94 709.679 2138.42 720.939 2127.73 722.409C2126.97 722.509 2126.18 722.569 2125.37 722.569C2122.64 722.569 2120.13 721.989 2117.91 721.469C2115.08 720.809 2112.17 720.019 2109.36 719.249C2103.49 717.649 2097.42 715.989 2091.82 715.529C2090.94 715.459 2089.99 715.419 2089.01 715.419C2085.6 715.419 2082.12 715.849 2078.44 716.299C2074.62 716.769 2070.67 717.259 2066.65 717.259H2065.97C2065.42 717.249 2064.81 717.219 2064.16 717.189C2063.39 717.159 2062.54 717.119 2061.68 717.119C2059.38 717.119 2058.47 717.419 2058.17 717.569C2058.16 717.879 2058.19 718.389 2058.21 718.759C2058.27 719.859 2058.34 721.229 2058.04 722.699C2053.72 743.669 2054.29 765.059 2056.46 790.739C2056.73 793.989 2056.98 797.259 2057.22 800.529C2057.8 808.289 2058.4 816.299 2059.43 824.019C2059.46 824.019 2059.48 824.019 2059.51 824.019C2062.9 824.189 2066.01 824.309 2069.01 824.399C2074.88 824.569 2079.4 824.649 2083.67 824.649C2094.07 824.649 2102.66 824.159 2110.69 823.119C2113.04 822.809 2115.44 822.459 2117.77 822.109C2120.79 821.659 2123.9 821.199 2127.02 820.829C2128.21 820.689 2129.41 820.559 2130.6 820.429C2134.97 819.959 2139.1 819.519 2143.03 818.459C2144.44 818.079 2145.86 817.409 2147.36 816.699C2149.95 815.469 2152.89 814.089 2156.6 813.769C2157.03 813.729 2157.46 813.709 2157.89 813.709C2159.58 813.709 2161.02 814.059 2162.31 814.769C2165.94 816.779 2166.68 820.849 2166.93 822.189C2167.92 827.609 2167.84 833.329 2166.69 838.719C2166.27 840.709 2165.55 842.379 2164.49 843.819C2162.06 847.139 2158.48 848.249 2156 848.789C2152.32 849.599 2148.51 849.989 2144.37 849.989C2138.29 849.989 2132.43 849.129 2127.51 848.279C2119.43 846.899 2110.5 845.989 2100.21 845.509C2095.16 845.279 2089.95 845.159 2084.27 845.159C2079.51 845.159 2074.47 845.239 2068.86 845.409C2063.21 845.579 2057.66 845.819 2053.45 846.009C2053.11 846.019 2052.75 846.029 2052.38 846.029C2051.61 846.029 2050.75 845.999 2049.85 845.969C2048.99 845.939 2048.09 845.899 2047.19 845.899C2044.36 845.899 2043.63 846.299 2043.56 846.349C2043.42 846.469 2043.01 847.019 2042.75 847.389C2042.41 847.869 2042.01 848.409 2041.54 848.959C2039.68 851.109 2037.2 852.349 2034.73 852.349L2034.68 852.369Z" fill="#231F20"/>
<path d="M2350.44 860.072C2349.3 860.072 2348.11 859.952 2346.9 859.712L2343.46 859.032C2335.76 857.502 2328.49 856.052 2320.88 855.072C2297.84 852.102 2279.66 848.002 2263.68 842.172C2239.75 833.442 2207.87 815.612 2191.92 780.252C2191.72 779.812 2191.53 779.382 2191.34 778.942C2187.81 770.802 2184.99 762.712 2182.95 754.872C2178.46 737.592 2177.5 720.622 2180.12 704.422C2181.66 694.912 2184.34 685.572 2186.96 676.812C2189.67 667.772 2192.91 657.302 2197.11 647.372C2207.57 622.692 2223.56 602.142 2243.35 587.952C2262.33 574.342 2284.93 566.852 2306.97 566.852C2309.96 566.852 2312.97 566.992 2315.91 567.262C2321.16 567.752 2326.34 568.672 2331.35 569.562C2336.42 570.462 2341.21 571.312 2346.09 571.762C2349.2 572.052 2353.44 572.432 2356.45 575.812C2359.83 579.602 2359.36 584.542 2358.72 587.932C2357.62 593.722 2355.78 599.352 2353.24 604.672C2352.59 606.032 2351.24 608.852 2348.36 610.422C2347.01 611.152 2345.55 611.522 2344 611.522C2340.46 611.522 2337.43 609.642 2334.69 607.622C2322.94 598.932 2308.36 594.142 2293.63 594.142C2291.9 594.142 2290.16 594.212 2288.45 594.342C2266.92 596.022 2245.26 608.662 2235.79 625.082C2234.63 627.092 2233.07 629.212 2231.56 631.272C2230.19 633.132 2228.77 635.062 2227.92 636.572C2213.32 662.312 2201.06 703.122 2210.42 740.472C2213.28 751.872 2218.73 765.022 2224 773.202C2232.81 786.882 2250.29 802.692 2265.57 810.802C2277.44 817.102 2291.12 821.062 2306.22 822.562C2311.27 823.062 2316.68 823.322 2322.29 823.322C2324.4 823.322 2326.59 823.282 2328.8 823.212C2329.64 823.182 2330.5 823.162 2331.36 823.142C2334.36 823.072 2337.46 823.002 2340.23 822.582C2341.19 822.432 2341.82 821.942 2343.38 820.572C2344.2 819.852 2345.13 819.032 2346.28 818.222C2347.01 817.712 2348.71 816.522 2351 816.402C2351.13 816.402 2351.25 816.402 2351.37 816.402C2355.24 816.402 2358.33 819.312 2359.65 824.192C2360.43 827.082 2361.11 830.052 2361.66 833.002C2362.58 837.932 2363 841.992 2362.96 845.772C2362.92 849.262 2362.29 852.042 2361.03 854.272C2360.37 855.432 2359.54 856.452 2358.55 857.302C2356.43 859.102 2353.63 860.052 2350.45 860.052L2350.44 860.072Z" fill="#231F20"/>
<path d="M2538.79 861.682C2536.71 861.682 2534.7 860.962 2532.98 859.602C2529.03 856.482 2529.13 851.302 2529.18 849.092C2529.48 834.262 2530.7 819.372 2531.87 804.962C2532.43 798.042 2533.02 790.872 2533.49 783.832L2535.63 751.882C2535.71 750.712 2535.83 749.432 2535.95 748.082C2536.52 741.882 2537.31 733.382 2534.12 729.622C2532.21 727.372 2528.57 726.272 2522.99 726.272C2522.13 726.272 2521.23 726.302 2520.23 726.352C2515.26 726.612 2510.19 726.952 2505.29 727.282C2499.49 727.672 2493.48 728.072 2487.55 728.352C2480.49 728.682 2473.33 728.832 2466.41 728.982C2458.9 729.142 2451.14 729.312 2443.55 729.702C2438.91 729.942 2434.26 730.532 2429.35 731.152C2422.96 731.962 2416.36 732.802 2409.74 732.802C2408.12 732.802 2406.57 732.752 2405.06 732.652C2403.67 765.512 2404.78 800.262 2408.61 844.372C2408.82 846.762 2409.45 854.052 2403.62 857.302C2402.38 857.992 2401.13 858.302 2400.22 858.532C2399.9 858.612 2399.46 858.722 2399.32 858.782C2399.45 858.732 2399 859 2398.5 859L2397 858.782C2396 858.782 2397 858.782 2394.5 858.782C2394 859 2392.57 858.86 2393 859C2392.26 858.75 2390.48 858.472 2383.61 858.332C2381.72 858.292 2381.21 858.282 2380.3 857.922C2372.13 854.622 2372.78 843.232 2373.14 837.102C2373.17 836.632 2373.19 836.192 2373.21 835.802L2377.95 731.372C2379.14 705.192 2380.37 678.112 2379.86 651.502C2379.57 636.542 2378.73 621.402 2377.35 606.482C2376.71 599.562 2375.9 592.232 2374.86 584.062C2373.77 575.442 2377.98 569.192 2386.72 566.462C2389.32 565.652 2391.88 565.242 2394.32 565.242C2398.34 565.242 2401.92 566.402 2404.67 568.592L2404.84 568.722C2408.38 571.632 2410.47 576.202 2410.74 581.602C2410.92 585.212 2410.31 588.552 2409.72 591.782L2409.49 593.052C2406.83 608.032 2406.84 623.782 2406.85 639.012C2406.86 654.612 2406.87 670.752 2404.09 686.552L2403.98 687.152C2402.96 692.912 2401.91 698.872 2404.56 702.412C2405.94 704.242 2408.54 705.652 2412.51 706.692C2417.16 707.912 2422.43 708.512 2428.62 708.512C2434.05 708.512 2439.67 708.062 2445.1 707.632C2446.21 707.542 2452.09 707.092 2452.09 707.092C2460.48 706.442 2469.15 705.762 2477.79 705.762C2481.81 705.762 2485.5 705.902 2489.08 706.192C2491.76 706.412 2494.47 706.722 2497.09 707.022C2502 707.582 2506.63 708.112 2511.19 708.112C2515.75 708.112 2519.51 707.572 2522.88 706.452C2527.3 704.992 2530.85 702.462 2532.9 699.342C2536.59 693.702 2535.95 686.032 2535.28 677.902C2535.14 676.262 2535.01 674.642 2534.91 673.032C2534.45 665.602 2534.86 658.092 2535.26 650.822C2535.98 637.612 2536.66 625.122 2532.44 613.662L2532.13 612.832C2531.23 610.452 2530.11 607.482 2530.42 604.102C2530.86 599.392 2533.77 595.982 2536.47 593.152C2539.81 589.652 2543.83 585.782 2549.26 584.262C2550.59 583.892 2551.99 583.702 2553.42 583.702C2559.42 583.702 2564.49 586.902 2566.33 591.852C2568.17 596.812 2566.33 601.462 2564.86 605.202C2564.69 605.622 2564.53 606.032 2564.37 606.442C2561 615.272 2561.21 625.312 2561.4 635.022C2562.54 690.982 2562.06 736.862 2559.89 779.412C2558.9 798.972 2558.42 819.882 2561.65 840.252C2563.17 849.862 2558.81 853.052 2556.07 854.092C2554.7 854.612 2553.45 854.682 2552.54 854.742C2552.3 854.752 2552.07 854.762 2551.83 854.802C2551.26 854.972 2549.7 856.202 2548.67 857.022C2546.05 859.092 2542.8 861.672 2538.8 861.672L2538.79 861.682Z" fill="#231F20"/>
</g>
<defs>
<clipPath id="clip0_2723_9924">
<rect width="2688.61" height="1145.28" fill="white"/>
</clipPath>
</defs>
</svg>
